PathFileType	4	(X/Y/Z)	s08c0102.trc
DataRate	CameraRate	NumFrames	NumMarkers	Units	OrigDataRate	OrigDataStartFrame	OrigNumFrames
200	200	4	50	mm	200	750	2000
Frame#	Time	racr			lacr			c7			jug			rlel			rdr			llel			ldr			s2			lic			ric			lasi			rasi			rpsi			lpsi			rgt			lgt			rth1			rth2			rth3			rth4			rlfc			rmfc			rsh1			rsh2			rsh3			rsh4			rlmal			rmmal			rcal			rtoe			rmt5			lth1			lth2			lth4			lth3			llfc			lmfc			llmal			lmmal			lcal			lmt5			lsh1			lsh2			lsh3			lsh4			ltoe			SBIKE			LBIKE			RBIKE			
		X1	Y1	Z1	X2	Y2	Z2	X3	Y3	Z3	X4	Y4	Z4	X5	Y5	Z5	X6	Y6	Z6	X7	Y7	Z7	X8	Y8	Z8	X9	Y9	Z9	X10	Y10	Z10	X11	Y11	Z11	X12	Y12	Z12	X13	Y13	Z13	X14	Y14	Z14	X15	Y15	Z15	X16	Y16	Z16	X17	Y17	Z17	X18	Y18	Z18	X19	Y19	Z19	X20	Y20	Z20	X21	Y21	Z21	X22	Y22	Z22	X23	Y23	Z23	X24	Y24	Z24	X25	Y25	Z25	X26	Y26	Z26	X27	Y27	Z27	X28	Y28	Z28	X29	Y29	Z29	X30	Y30	Z30	X31	Y31	Z31	X32	Y32	Z32	X33	Y33	Z33	X34	Y34	Z34	X35	Y35	Z35	X36	Y36	Z36	X37	Y37	Z37	X38	Y38	Z38	X39	Y39	Z39	X40	Y40	Z40	X41	Y41	Z41	X42	Y42	Z42	X43	Y43	Z43	X44	Y44	Z44	X45	Y45	Z45	X46	Y46	Z46	X47	Y47	Z47	X48	Y48	Z48	X49	Y49	Z49	X50	Y50	Z50	
750	3.7500	562.415127	1359.932390	-72.540155	583.150290	1315.958342	-384.526326	549.026821	1405.175684	-234.461889	522.726225	1249.326249	-207.573473	575.891634	1102.777904	27.383220	797.509878	909.520552	-63.308503	606.230280	1071.351145	-515.436709	804.407281	889.341007	-433.502176	-13.773996	1220.685250	-269.918806	155.676862	1200.159835	-395.971631	126.787274	1233.384572	-86.571257	172.285448	1156.219331	-357.079398	159.704962	1173.548051	-114.402553	15.193184	1264.154686	-217.013068	22.258734	1263.736665	-311.655727	57.634851	1123.233644	-61.945584	107.251031	1092.999166	-435.014235	187.730086	999.092821	-50.470804	265.550827	956.484545	-50.670214	311.517862	882.806531	-59.973102	290.882582	983.121557	-57.418609	396.444984	794.953189	-73.996595	356.321992	778.956518	-197.245270	354.130405	669.405588	-43.474866	368.725465	581.793186	-58.956056	337.785699	501.172181	-63.925748	396.999072	582.907353	-88.195014	317.623708	380.899308	-70.093663	330.187221	403.291835	-158.599082	244.900083	333.310661	-114.560439	536.033126	390.078142	-106.349821	456.972329	338.003442	-42.021329	196.993806	997.530048	-428.114637	268.764507	948.997160	-415.059195	291.898630	970.441101	-396.480543	308.793556	869.338802	-415.244173	357.864738	751.573618	-396.051332	343.983326	727.853573	-286.934813	82.233535	435.676557	-404.925172	115.443372	434.324796	-319.221762	22.555885	455.958108	-362.766907	140.263443	275.855213	-420.657441	280.103876	648.842553	-421.226104	240.971268	577.020031	-407.228154	168.179659	523.999493	-408.838677	257.090787	563.780461	-369.866582	222.210197	246.388768	-353.269863	-140.998010	939.412439	-230.665873	15.203680	79.404411	-428.048983	14.694851	79.855814	-29.607785	
751	3.7550	563.207130	1357.031480	-75.570607	583.104124	1314.065155	-387.002192	549.693604	1404.003451	-236.631924	521.990959	1248.140592	-211.292028	578.639329	1101.570492	28.508265	798.368609	908.065362	-63.119734	606.647086	1069.250582	-516.455435	805.138498	889.122146	-433.278151	-12.908886	1218.474903	-268.324855	155.666720	1198.504181	-394.553194	128.572880	1230.231223	-84.942891	172.764485	1154.543755	-355.815832	161.155770	1170.987346	-113.279540	15.869488	1261.961157	-215.280929	22.898264	1261.885682	-310.262242	57.794552	1119.376931	-61.009049	108.763792	1092.113658	-434.205562	186.228034	992.409649	-49.532552	263.085790	948.389385	-49.479832	307.448585	873.769387	-59.512908	289.036491	974.564046	-56.258456	391.607741	785.065983	-73.890897	359.600081	768.700062	-192.356596	350.097738	658.733379	-42.591696	366.382571	571.354450	-58.200641	336.917266	490.206335	-63.541004	394.939097	572.865359	-87.121512	318.706310	369.690019	-69.665327	331.088113	392.403109	-158.082158	246.094327	322.383547	-114.371651	537.309975	378.494690	-106.281037	458.199784	326.673232	-41.814051	200.732306	998.960268	-429.764952	272.520928	951.287204	-414.683251	294.961107	973.139317	-395.784888	314.575765	872.559493	-414.899263	365.681116	756.409728	-394.861371	351.585201	733.899663	-285.144548	83.625516	446.659530	-404.836965	117.646479	443.940363	-319.157587	23.908044	467.750793	-362.732616	139.726023	286.407382	-420.559235	286.098094	655.305098	-420.525852	245.327673	584.427786	-406.725556	171.405865	532.948854	-408.426007	261.314732	570.674017	-369.449940	221.315535	256.171989	-353.246052	-140.644622	939.421017	-230.410345	15.377722	79.532385	-427.931778	14.780382	79.835098	-29.570581	
752	3.7600	564.049557	1355.951332	-75.988051	582.942609	1312.718030	-389.497432	550.324718	1403.586767	-239.031285	521.519247	1247.939691	-213.612861	581.650237	1100.303237	28.715316	799.201468	906.630608	-63.025979	606.446054	1067.715068	-517.921420	805.643427	889.005988	-433.302366	-12.123110	1216.718999	-266.263913	155.689705	1197.272824	-392.819727	130.413365	1227.226430	-83.103706	173.172429	1153.117406	-354.520923	162.760471	1168.378378	-112.090458	17.015138	1259.429873	-213.324575	23.587778	1260.189741	-308.386493	58.319828	1115.461523	-60.011956	110.047652	1091.254987	-433.234325	184.793399	985.719633	-48.765218	261.060832	940.109324	-49.418286	303.560387	864.624640	-59.451517	287.294831	965.804249	-55.269922	386.587836	774.833857	-73.927025	362.728993	758.516529	-187.275648	346.192554	647.611989	-41.839842	363.755426	560.552523	-57.512823	335.592040	478.891159	-62.994459	392.472057	562.281478	-86.448610	319.186177	358.507269	-68.886035	331.206327	381.533021	-157.240293	246.419244	311.491650	-113.734170	537.798656	366.913123	-106.186503	458.612254	314.954145	-41.776008	202.050086	998.734633	-427.862761	276.089805	953.725689	-414.694090	297.988497	976.064658	-395.463503	320.172253	876.067207	-414.726829	373.124200	761.687816	-394.431899	359.120949	740.353285	-283.131249	85.270859	457.815316	-404.693779	110.474299	452.186740	-324.123269	25.500271	479.506379	-362.618087	139.676744	297.430020	-420.782735	292.052213	662.160642	-420.102070	250.983959	595.328462	-412.213271	174.859112	542.194621	-407.941156	265.495767	577.936326	-368.935582	221.156277	266.408870	-353.671126	-140.398164	939.459042	-230.263665	15.541833	79.451415	-427.751265	14.814601	79.811533	-29.534476	
753	3.7650	564.990203	1355.111360	-76.411085	582.512422	1311.793115	-391.866620	550.460637	1402.970035	-241.041092	521.747315	1247.363247	-215.293635	584.304449	1099.993577	29.117442	799.909995	905.309207	-63.019084	605.948276	1066.648609	-519.616218	805.918946	889.090856	-433.516650	-11.572652	1215.052618	-263.975649	155.666084	1196.008281	-391.014294	132.313772	1224.154741	-81.065247	173.560690	1151.845914	-352.890647	164.522364	1165.731889	-110.835308	18.403192	1256.962863	-210.892587	24.326906	1258.603249	-305.705680	59.360026	1111.380795	-58.853989	111.051344	1090.697689	-432.100560	183.197913	978.976242	-48.464399	259.125549	931.581889	-48.957686	300.055377	855.493930	-58.956086	285.808791	956.808120	-54.446062	381.585717	764.553460	-73.639596	365.577467	748.452518	-182.028947	342.110378	636.672309	-41.216256	360.814605	549.708484	-56.748498	333.696025	467.746276	-62.154105	389.630234	552.068716	-85.374235	318.867994	347.351576	-67.840897	330.652558	371.018303	-156.026660	246.539834	300.167397	-113.191763	537.633298	355.328822	-106.002778	458.472403	303.543396	-41.457474	204.288205	999.422940	-427.961192	279.549133	956.472362	-414.837946	300.914670	979.434990	-395.771395	325.487685	879.728521	-414.592056	380.342060	767.279356	-393.858153	366.569602	747.155730	-280.988198	87.213172	469.058087	-404.400070	112.673474	462.786898	-323.906281	27.387016	491.207749	-362.481646	140.444195	308.470536	-420.786731	298.295369	669.092196	-419.658688	254.359032	599.752264	-405.521310	178.483537	551.578248	-407.592902	269.891947	585.360017	-368.450052	221.709103	276.849839	-353.528374	-140.368728	939.488064	-230.096481	15.645430	79.497726	-427.659576	14.864262	79.797653	-29.455479	
